# xmcd
#
# Track frame offsets:
#	150
#	15000
#	30617
#	41887
#	56847
#	71100
#	90102
#	108297
#	129060
#	145680
#	157815
#	172665
#
# Disc length: 2495 seconds
#
# Revision: 0
# Processed by: cddbd v1.4PL0 Copyright (c) Steve Scherf et al.
# Submitted via: audiograbber 1.81.03
#
DISCID=8209bd0c
DTITLE=Kiko Dias - Linguagem da Terra
DYEAR=1900
DGENRE=Country
TTITLE0=Viajantes
TTITLE1=Amor Impossível
TTITLE2=Festa na Roça
TTITLE3=Galera
TTITLE4=Vai Passarinho
TTITLE5=Uma Viola e um Cantor
TTITLE6=Moinho de Ilusões
TTITLE7=Linguagem da Terra
TTITLE8=Ladainha de Nossa Senhora
TTITLE9=Mulher Feia
TTITLE10=Palavras
TTITLE11=Viola
EXTD=
EXTT0=
EXTT1=
EXTT2=
EXTT3=
EXTT4=
EXTT5=
EXTT6=
EXTT7=
EXTT8=
EXTT9=
EXTT10=
EXTT11=
PLAYORDER=
